<svg xmlns="http://www.w3.org/2000/svg" xmlns:xlink="http://www.w3.org/1999/xlink" width="1200" zoomAndPan="magnify" viewBox="0 0 900 899.99999" height="1200" preserveAspectRatio="xMidYMid meet" version="1.0"><path fill="#fefefe" d="M 590.195312 382.6875 L 877.980469 424.484375 C 890.730469 426.347656 900.042969 437.097656 900.054688 449.976562 C 900.054688 462.859375 890.765625 473.621094 878.011719 475.496094 L 590.195312 517.761719 L 697.113281 661.019531 C 704.820312 671.347656 703.808594 685.53125 694.703125 694.644531 C 685.605469 703.761719 671.417969 704.8125 661.085938 697.109375 L 517.355469 590.195312 L 475.554688 877.980469 C 473.695312 890.730469 462.949219 900.035156 450.066406 900.046875 C 437.1875 900.050781 426.425781 890.761719 424.550781 878.011719 L 382.28125 590.203125 L 239.015625 697.109375 C 228.695312 704.8125 214.515625 703.808594 205.390625 694.699219 C 196.277344 685.601562 195.230469 671.414062 202.929688 661.078125 L 309.851562 517.355469 L 22.0625 475.550781 C 9.316406 473.695312 0.00390625 462.949219 0 450.0625 C -0.0078125 437.179688 9.28125 426.417969 22.035156 424.539062 L 309.851562 382.28125 L 202.929688 239.023438 C 195.21875 228.695312 196.242188 214.511719 205.34375 205.394531 C 214.445312 196.277344 228.628906 195.230469 238.964844 202.929688 L 382.695312 309.84375 L 424.492188 22.0625 C 426.34375 9.3125 437.09375 0.0117188 449.980469 0 C 462.859375 -0.015625 473.625 9.285156 475.496094 22.027344 L 517.761719 309.84375 L 661.023438 202.929688 C 671.347656 195.222656 685.53125 196.238281 694.648438 205.339844 C 703.769531 214.4375 704.816406 228.625 697.113281 238.960938 Z M 590.195312 382.6875 " fill-opacity="1" fill-rule="evenodd"/><path fill="#0f2a32" d="M 454.910156 59.226562 L 504.402344 396.269531 L 840.792969 445.136719 L 874.273438 449.992188 L 840.8125 454.90625 L 503.777344 504.394531 L 454.910156 840.789062 L 450.050781 874.265625 L 445.132812 840.8125 L 395.644531 503.773438 L 59.253906 454.90625 L 25.773438 450.046875 L 59.242188 445.136719 L 396.269531 395.640625 L 445.132812 59.253906 L 449.996094 25.769531 Z M 454.910156 59.226562 " fill-opacity="1" fill-rule="evenodd"/><path fill="#fefefe" d="M 494.253906 501.246094 L 454.972656 461.960938 L 454.972656 771.691406 Z M 405.785156 398.792969 L 445.070312 438.082031 L 445.070312 128.347656 Z M 501.25 405.796875 L 461.964844 445.070312 L 771.691406 445.070312 Z M 398.796875 494.253906 L 438.085938 454.972656 L 128.355469 454.972656 Z M 398.796875 494.253906 " fill-opacity="1" fill-rule="evenodd"/><path fill="#0f2a32" d="M 772.398438 454.972656 L 461.964844 454.972656 L 501.710938 494.71875 Z M 454.972656 127.648438 L 454.972656 438.082031 L 494.726562 398.328125 Z M 127.65625 445.070312 L 438.085938 445.070312 L 398.335938 405.324219 Z M 445.070312 772.394531 L 445.070312 461.960938 L 405.335938 501.710938 Z M 445.070312 772.394531 " fill-opacity="1" fill-rule="evenodd"/><path fill="#0f2a32" d="M 244.058594 238.84375 L 450.359375 392.308594 L 655.972656 238.847656 L 676.4375 223.578125 L 661.203125 244.058594 L 507.726562 450.351562 L 661.191406 655.96875 L 676.472656 676.433594 L 655.992188 661.199219 L 449.691406 507.734375 L 244.070312 661.191406 L 223.609375 676.464844 L 238.847656 655.976562 L 392.3125 449.691406 L 238.855469 244.066406 L 223.574219 223.601562 Z M 244.058594 238.84375 " fill-opacity="1" fill-rule="evenodd"/><path fill="#fefefe" d="M 500.96875 453.753906 L 459.035156 453.753906 L 624.34375 619.058594 Z M 399.078125 446.28125 L 441.015625 446.28125 L 275.699219 280.984375 Z M 453.757812 399.074219 L 453.757812 441.015625 L 619.066406 275.695312 Z M 446.28125 500.96875 L 446.28125 459.039062 L 280.992188 624.339844 Z M 446.28125 500.96875 " fill-opacity="1" fill-rule="evenodd"/><path fill="#0f2a32" d="M 624.71875 280.601562 L 459.035156 446.28125 L 501.464844 446.28125 Z M 280.617188 275.328125 L 446.28125 441.015625 L 446.28125 398.578125 Z M 275.328125 619.433594 L 441.015625 453.753906 L 398.582031 453.753906 Z M 619.4375 624.714844 L 453.757812 459.039062 L 453.757812 501.457031 Z M 619.4375 624.714844 " fill-opacity="1" fill-rule="evenodd"/></svg>