<svg xmlns="http://www.w3.org/2000/svg" xmlns:xlink="http://www.w3.org/1999/xlink" width="500" zoomAndPan="magnify" viewBox="0 0 375 374.999991" height="500" preserveAspectRatio="xMidYMid meet" version="1.0"><defs><clipPath id="id1"><path d="M 68.671875 0.25 L 306.40625 0.25 L 306.40625 215.960938 L 68.671875 215.960938 Z M 68.671875 0.25 " clip-rule="nonzero"/></clipPath></defs><rect x="-37.5" width="450" fill="#ffffff" y="-37.499999" height="449.999989" fill-opacity="1"/><rect x="-37.5" width="450" fill="#ffffff" y="-37.499999" height="449.999989" fill-opacity="1"/><rect x="-37.5" width="450" fill="#ffffff" y="-37.499999" height="449.999989" fill-opacity="1"/><rect x="-37.5" width="450" fill="#ffffff" y="-37.499999" height="449.999989" fill-opacity="1"/><path fill="#000000" d="M 108.664062 252.9375 C 106.761719 251.023438 103.667969 251.011719 101.75 252.914062 C 95.765625 258.855469 90.625 264.554688 86.472656 269.84375 C 84.804688 271.964844 85.179688 275.035156 87.296875 276.699219 C 88.195312 277.402344 89.257812 277.742188 90.3125 277.742188 C 91.757812 277.742188 93.195312 277.101562 94.160156 275.871094 C 98.0625 270.894531 102.9375 265.503906 108.640625 259.84375 C 110.550781 257.941406 110.5625 254.851562 108.664062 252.9375 " fill-opacity="1" fill-rule="nonzero"/><path fill="#000000" d="M 135.953125 223.410156 C 135.640625 223.640625 128.160156 229.199219 118.359375 237.632812 C 116.316406 239.390625 116.085938 242.476562 117.84375 244.515625 C 118.808594 245.640625 120.175781 246.21875 121.550781 246.21875 C 122.675781 246.21875 123.808594 245.824219 124.734375 245.035156 C 134.246094 236.847656 141.699219 231.308594 141.773438 231.25 C 143.9375 229.644531 144.394531 226.589844 142.789062 224.421875 C 141.179688 222.253906 138.117188 221.808594 135.953125 223.410156 " fill-opacity="1" fill-rule="nonzero"/><path fill="#000000" d="M 127.144531 313.464844 C 123.707031 313.789062 120.328125 313.953125 117.105469 313.953125 C 117.085938 313.953125 117.070312 313.953125 117.046875 313.953125 C 113.300781 313.953125 109.609375 313.730469 106.078125 313.28125 C 103.417969 312.925781 100.957031 314.835938 100.621094 317.511719 C 100.28125 320.1875 102.171875 322.632812 104.851562 322.96875 C 108.789062 323.464844 112.894531 323.71875 117.046875 323.71875 C 117.066406 323.71875 117.085938 323.71875 117.105469 323.71875 C 120.636719 323.71875 124.324219 323.542969 128.066406 323.183594 C 130.75 322.929688 132.71875 320.550781 132.46875 317.863281 C 132.210938 315.175781 129.785156 313.21875 127.144531 313.464844 " fill-opacity="1" fill-rule="nonzero"/><path fill="#000000" d="M 82.695312 299.355469 C 82.695312 297.609375 83.058594 295.625 83.773438 293.457031 C 84.621094 290.898438 83.230469 288.132812 80.671875 287.289062 C 78.101562 286.445312 75.347656 287.832031 74.5 290.390625 C 73.453125 293.546875 72.925781 296.5625 72.925781 299.355469 C 72.925781 306.035156 75.949219 311.667969 81.664062 315.644531 C 82.515625 316.234375 83.492188 316.515625 84.449219 316.515625 C 85.996094 316.515625 87.515625 315.78125 88.464844 314.421875 C 90.007812 312.207031 89.457031 309.164062 87.246094 307.625 C 84.140625 305.464844 82.695312 302.839844 82.695312 299.355469 " fill-opacity="1" fill-rule="nonzero"/><path fill="#000000" d="M 169.648438 304.285156 L 166.039062 305.269531 C 160.328125 306.828125 154.425781 308.4375 148.355469 309.847656 C 145.726562 310.457031 144.089844 313.078125 144.703125 315.707031 C 145.222656 317.960938 147.234375 319.484375 149.453125 319.484375 C 149.820312 319.484375 150.191406 319.441406 150.5625 319.359375 C 156.816406 317.90625 162.808594 316.269531 168.613281 314.6875 L 172.203125 313.710938 C 174.808594 313.007812 176.34375 310.324219 175.640625 307.71875 C 174.929688 305.117188 172.261719 303.570312 169.648438 304.285156 " fill-opacity="1" fill-rule="nonzero"/><path fill="#000000" d="M 216.535156 302.132812 C 210.113281 298.695312 202.457031 297.769531 191.867188 299.265625 C 189.195312 299.644531 187.335938 302.113281 187.710938 304.785156 C 188.09375 307.449219 190.550781 309.3125 193.234375 308.9375 C 201.589844 307.75 207.417969 308.335938 211.925781 310.742188 C 212.660156 311.132812 213.449219 311.316406 214.226562 311.316406 C 215.96875 311.316406 217.65625 310.386719 218.535156 308.742188 C 219.8125 306.363281 218.914062 303.402344 216.535156 302.132812 " fill-opacity="1" fill-rule="nonzero"/><path fill="#000000" d="M 225.761719 319.105469 C 223.15625 319.804688 221.613281 322.484375 222.3125 325.089844 C 222.785156 326.855469 223.027344 328.617188 223.027344 330.324219 C 223.027344 334.3125 221.710938 338.308594 219.113281 342.203125 C 217.617188 344.445312 218.222656 347.476562 220.46875 348.972656 C 221.300781 349.527344 222.242188 349.796875 223.171875 349.796875 C 224.75 349.796875 226.296875 349.03125 227.242188 347.621094 C 230.929688 342.09375 232.796875 336.273438 232.796875 330.324219 C 232.796875 327.757812 232.445312 325.144531 231.746094 322.554688 C 231.046875 319.953125 228.375 318.410156 225.761719 319.105469 " fill-opacity="1" fill-rule="nonzero"/><path fill="#000000" d="M 204.347656 355.808594 C 196.097656 361.160156 187.8125 364.417969 185.46875 365.289062 C 182.9375 366.230469 181.652344 369.039062 182.589844 371.570312 C 183.320312 373.535156 185.1875 374.75 187.167969 374.75 C 187.734375 374.75 188.3125 374.652344 188.871094 374.441406 C 191.453125 373.484375 200.578125 369.894531 209.667969 363.996094 C 211.929688 362.527344 212.574219 359.503906 211.105469 357.242188 C 209.636719 354.980469 206.613281 354.339844 204.347656 355.808594 " fill-opacity="1" fill-rule="nonzero"/><g clip-path="url(#id1)"><path fill="#000000" d="M 242.46875 196.023438 L 173.78125 152.179688 L 266.339844 45.695312 C 267.972656 43.820312 267.941406 41.023438 266.265625 39.191406 C 264.589844 37.363281 261.808594 37.078125 259.792969 38.527344 L 129.09375 128.140625 L 78.441406 97.21875 L 296.628906 10.015625 Z M 160.660156 195.363281 L 169.523438 161.046875 L 183.792969 170.15625 Z M 149.394531 199.910156 L 134.042969 136.613281 L 243.648438 57.222656 L 162.691406 150.035156 C 162.082031 150.734375 161.785156 151.597656 161.640625 152.492188 Z M 296.707031 0.25 C 296.683594 0.25 296.65625 0.25 296.628906 0.25 C 296.457031 0.25 296.28125 0.257812 296.109375 0.265625 C 294.9375 0.328125 293.820312 0.59375 292.792969 1.03125 L 74.816406 88.152344 C 71.378906 89.523438 69.015625 92.71875 68.707031 96.402344 C 68.398438 100.085938 70.195312 103.628906 73.347656 105.554688 L 123.945312 136.4375 L 141.382812 208.324219 C 142.230469 211.828125 144.945312 214.578125 148.4375 215.480469 C 149.242188 215.6875 150.0625 215.785156 150.878906 215.785156 C 153.574219 215.785156 156.199219 214.664062 158.074219 212.625 L 193.929688 176.625 L 240.902344 206.609375 C 241.71875 207.128906 242.628906 207.378906 243.527344 207.378906 C 245.136719 207.378906 246.714844 206.582031 247.648438 205.121094 C 247.722656 205.003906 247.730469 204.867188 247.792969 204.746094 C 249.640625 203.484375 251.019531 201.609375 251.65625 199.417969 L 305.875 13.210938 C 306.21875 12.207031 306.410156 11.136719 306.410156 10.015625 C 306.410156 4.640625 302.074219 0.28125 296.707031 0.25 " fill-opacity="1" fill-rule="nonzero"/></g></svg>