<svg xmlns="http://www.w3.org/2000/svg" xmlns:xlink="http://www.w3.org/1999/xlink" width="500" zoomAndPan="magnify" viewBox="0 0 375 374.999991" height="500" preserveAspectRatio="xMidYMid meet" version="1.0"><path fill="#000000" d="M 187.5 0 C 184.429688 0 181.363281 0.0742188 178.300781 0.226562 C 175.234375 0.375 172.175781 0.601562 169.121094 0.902344 C 166.066406 1.203125 163.023438 1.578125 159.988281 2.03125 C 156.953125 2.480469 153.929688 3.003906 150.921875 3.601562 C 147.910156 4.203125 144.917969 4.875 141.941406 5.617188 C 138.964844 6.363281 136.007812 7.183594 133.070312 8.074219 C 130.136719 8.964844 127.222656 9.925781 124.332031 10.960938 C 121.445312 11.996094 118.582031 13.097656 115.746094 14.273438 C 112.910156 15.445312 110.105469 16.691406 107.332031 18.003906 C 104.558594 19.3125 101.820312 20.691406 99.113281 22.140625 C 96.40625 23.585938 93.738281 25.097656 91.105469 26.675781 C 88.472656 28.253906 85.882812 29.894531 83.332031 31.597656 C 80.777344 33.304688 78.269531 35.070312 75.804688 36.898438 C 73.339844 38.726562 70.921875 40.613281 68.550781 42.558594 C 66.179688 44.507812 63.855469 46.511719 61.582031 48.570312 C 59.308594 50.632812 57.085938 52.746094 54.917969 54.917969 C 52.746094 57.085938 50.632812 59.308594 48.570312 61.582031 C 46.511719 63.855469 44.507812 66.179688 42.558594 68.550781 C 40.613281 70.921875 38.726562 73.339844 36.898438 75.804688 C 35.070312 78.269531 33.304688 80.777344 31.597656 83.332031 C 29.894531 85.882812 28.253906 88.472656 26.675781 91.105469 C 25.097656 93.738281 23.585938 96.40625 22.140625 99.113281 C 20.691406 101.820312 19.3125 104.558594 18.003906 107.332031 C 16.691406 110.105469 15.445312 112.910156 14.273438 115.746094 C 13.097656 118.582031 11.996094 121.445312 10.960938 124.332031 C 9.925781 127.222656 8.964844 130.136719 8.074219 133.070312 C 7.183594 136.007812 6.363281 138.964844 5.617188 141.941406 C 4.875 144.917969 4.203125 147.910156 3.601562 150.921875 C 3.003906 153.929688 2.480469 156.953125 2.03125 159.988281 C 1.578125 163.023438 1.203125 166.066406 0.902344 169.121094 C 0.601562 172.175781 0.375 175.234375 0.226562 178.300781 C 0.0742188 181.363281 0 184.429688 0 187.5 C 0 190.570312 0.0742188 193.636719 0.226562 196.699219 C 0.375 199.765625 0.601562 202.824219 0.902344 205.878906 C 1.203125 208.933594 1.578125 211.976562 2.03125 215.011719 C 2.480469 218.046875 3.003906 221.070312 3.601562 224.078125 C 4.203125 227.089844 4.875 230.082031 5.617188 233.058594 C 6.363281 236.035156 7.183594 238.992188 8.074219 241.929688 C 8.964844 244.863281 9.925781 247.777344 10.960938 250.667969 C 11.996094 253.554688 13.097656 256.417969 14.273438 259.253906 C 15.445312 262.089844 16.691406 264.894531 18.003906 267.667969 C 19.3125 270.441406 20.691406 273.179688 22.140625 275.886719 C 23.585938 278.59375 25.097656 281.261719 26.675781 283.894531 C 28.253906 286.527344 29.894531 289.117188 31.597656 291.667969 C 33.304688 294.222656 35.070312 296.730469 36.898438 299.195312 C 38.726562 301.660156 40.613281 304.078125 42.558594 306.449219 C 44.507812 308.820312 46.511719 311.144531 48.570312 313.417969 C 50.632812 315.691406 52.746094 317.914062 54.917969 320.082031 C 57.085938 322.253906 59.308594 324.367188 61.582031 326.429688 C 63.855469 328.488281 66.179688 330.492188 68.550781 332.4375 C 70.921875 334.386719 73.339844 336.273438 75.804688 338.101562 C 78.269531 339.929688 80.777344 341.695312 83.332031 343.402344 C 85.882812 345.105469 88.472656 346.746094 91.105469 348.324219 C 93.738281 349.902344 96.40625 351.414062 99.113281 352.859375 C 101.820312 354.308594 104.558594 355.6875 107.332031 356.996094 C 110.105469 358.308594 112.910156 359.554688 115.746094 360.726562 C 118.582031 361.902344 121.445312 363.003906 124.332031 364.039062 C 127.222656 365.074219 130.136719 366.035156 133.070312 366.925781 C 136.007812 367.816406 138.964844 368.636719 141.941406 369.378906 C 144.917969 370.125 147.910156 370.796875 150.921875 371.398438 C 153.929688 371.996094 156.953125 372.519531 159.988281 372.96875 C 163.023438 373.421875 166.066406 373.796875 169.121094 374.097656 C 172.175781 374.398438 175.234375 374.625 178.300781 374.773438 C 181.363281 374.925781 184.429688 375 187.5 375 C 190.570312 375 193.636719 374.925781 196.699219 374.773438 C 199.765625 374.625 202.824219 374.398438 205.878906 374.097656 C 208.933594 373.796875 211.976562 373.421875 215.011719 372.96875 C 218.046875 372.519531 221.070312 371.996094 224.078125 371.398438 C 227.089844 370.796875 230.082031 370.125 233.058594 369.378906 C 236.035156 368.636719 238.992188 367.816406 241.929688 366.925781 C 244.863281 366.035156 247.777344 365.074219 250.667969 364.039062 C 253.554688 363.003906 256.417969 361.902344 259.253906 360.726562 C 262.089844 359.554688 264.894531 358.308594 267.667969 356.996094 C 270.441406 355.6875 273.179688 354.308594 275.886719 352.859375 C 278.59375 351.414062 281.261719 349.902344 283.894531 348.324219 C 286.527344 346.746094 289.117188 345.105469 291.667969 343.402344 C 294.222656 341.695312 296.730469 339.929688 299.195312 338.101562 C 301.660156 336.273438 304.078125 334.386719 306.449219 332.4375 C 308.820312 330.492188 311.144531 328.488281 313.417969 326.429688 C 315.691406 324.367188 317.914062 322.253906 320.082031 320.082031 C 322.253906 317.914062 324.367188 315.691406 326.429688 313.417969 C 328.488281 311.144531 330.492188 308.820312 332.4375 306.449219 C 334.386719 304.078125 336.273438 301.660156 338.101562 299.195312 C 339.929688 296.730469 341.695312 294.222656 343.402344 291.667969 C 345.105469 289.117188 346.746094 286.527344 348.324219 283.894531 C 349.902344 281.261719 351.414062 278.59375 352.859375 275.886719 C 354.308594 273.179688 355.6875 270.441406 356.996094 267.667969 C 358.308594 264.894531 359.554688 262.089844 360.726562 259.253906 C 361.902344 256.417969 363.003906 253.554688 364.039062 250.667969 C 365.074219 247.777344 366.035156 244.863281 366.925781 241.929688 C 367.816406 238.992188 368.636719 236.035156 369.378906 233.058594 C 370.125 230.082031 370.796875 227.089844 371.398438 224.078125 C 371.996094 221.070312 372.519531 218.046875 372.96875 215.011719 C 373.421875 211.976562 373.796875 208.933594 374.097656 205.878906 C 374.398438 202.824219 374.625 199.765625 374.773438 196.699219 C 374.925781 193.636719 375 190.570312 375 187.5 C 375 184.429688 374.925781 181.363281 374.773438 178.300781 C 374.625 175.234375 374.398438 172.175781 374.097656 169.121094 C 373.796875 166.066406 373.421875 163.023438 372.96875 159.988281 C 372.519531 156.953125 371.996094 153.929688 371.398438 150.921875 C 370.796875 147.910156 370.125 144.917969 369.378906 141.941406 C 368.636719 138.964844 367.816406 136.007812 366.925781 133.070312 C 366.035156 130.136719 365.074219 127.222656 364.039062 124.332031 C 363.003906 121.445312 361.902344 118.582031 360.726562 115.746094 C 359.554688 112.910156 358.308594 110.105469 356.996094 107.332031 C 355.6875 104.558594 354.308594 101.820312 352.859375 99.113281 C 351.414062 96.40625 349.902344 93.738281 348.324219 91.105469 C 346.746094 88.472656 345.105469 85.882812 343.402344 83.332031 C 341.695312 80.777344 339.929688 78.269531 338.101562 75.804688 C 336.273438 73.339844 334.386719 70.921875 332.4375 68.550781 C 330.492188 66.179688 328.488281 63.855469 326.429688 61.582031 C 324.367188 59.308594 322.253906 57.085938 320.082031 54.917969 C 317.914062 52.746094 315.691406 50.632812 313.417969 48.570312 C 311.144531 46.511719 308.820312 44.507812 306.449219 42.558594 C 304.078125 40.613281 301.660156 38.726562 299.195312 36.898438 C 296.730469 35.070312 294.222656 33.304688 291.667969 31.597656 C 289.117188 29.894531 286.527344 28.253906 283.894531 26.675781 C 281.261719 25.097656 278.59375 23.585938 275.886719 22.140625 C 273.179688 20.691406 270.441406 19.3125 267.667969 18.003906 C 264.894531 16.691406 262.089844 15.445312 259.253906 14.273438 C 256.417969 13.097656 253.554688 11.996094 250.667969 10.960938 C 247.777344 9.925781 244.863281 8.964844 241.929688 8.074219 C 238.992188 7.183594 236.035156 6.363281 233.058594 5.617188 C 230.082031 4.875 227.089844 4.203125 224.078125 3.601562 C 221.070312 3.003906 218.046875 2.480469 215.011719 2.03125 C 211.976562 1.578125 208.933594 1.203125 205.878906 0.902344 C 202.824219 0.601562 199.765625 0.375 196.699219 0.226562 C 193.636719 0.0742188 190.570312 0 187.5 0 Z M 214.285156 252.925781 C 213.871094 252.984375 213.457031 253.019531 213.039062 253.035156 C 212.625 253.050781 212.207031 253.042969 211.792969 253.015625 C 211.375 252.988281 210.960938 252.933594 210.550781 252.863281 C 210.140625 252.789062 209.734375 252.695312 209.332031 252.578125 C 208.933594 252.460938 208.539062 252.324219 208.15625 252.164062 C 207.769531 252.003906 207.390625 251.828125 207.023438 251.628906 C 206.660156 251.429688 206.304688 251.210938 205.960938 250.972656 C 205.617188 250.738281 205.285156 250.484375 204.96875 250.210938 C 204.652344 249.9375 204.351562 249.652344 204.066406 249.347656 C 203.78125 249.042969 203.511719 248.722656 203.261719 248.390625 C 203.011719 248.058594 202.777344 247.710938 202.5625 247.355469 C 202.347656 246.996094 202.152344 246.628906 201.976562 246.25 C 201.800781 245.871094 201.648438 245.484375 201.511719 245.089844 C 201.378906 244.695312 201.265625 244.292969 201.175781 243.886719 C 201.085938 243.480469 201.015625 243.066406 200.96875 242.652344 C 200.921875 242.238281 200.894531 241.824219 200.894531 241.40625 L 200.894531 210.601562 C 200.890625 209.957031 200.945312 209.3125 201.050781 208.675781 C 201.15625 208.035156 201.316406 207.414062 201.527344 206.800781 C 201.738281 206.191406 202 205.601562 202.3125 205.03125 C 202.621094 204.464844 202.980469 203.929688 203.378906 203.421875 C 203.78125 202.914062 204.222656 202.445312 204.703125 202.011719 C 205.183594 201.578125 205.699219 201.1875 206.246094 200.84375 C 206.789062 200.496094 207.363281 200.199219 207.960938 199.949219 C 208.554688 199.699219 209.167969 199.5 209.800781 199.351562 C 211.023438 199.074219 212.234375 198.738281 213.429688 198.347656 C 214.625 197.953125 215.796875 197.507812 216.949219 197.003906 C 218.101562 196.5 219.226562 195.945312 220.328125 195.335938 C 221.429688 194.730469 222.496094 194.070312 223.535156 193.363281 C 224.574219 192.652344 225.578125 191.898438 226.542969 191.09375 C 227.511719 190.292969 228.441406 189.445312 229.328125 188.558594 C 230.214844 187.667969 231.058594 186.738281 231.859375 185.769531 C 232.660156 184.800781 233.414062 183.796875 234.121094 182.753906 C 234.828125 181.714844 235.484375 180.644531 236.089844 179.542969 C 236.695312 178.441406 237.25 177.316406 237.75 176.160156 C 238.25 175.007812 238.695312 173.832031 239.085938 172.636719 C 239.476562 171.445312 239.808594 170.234375 240.085938 169.007812 C 240.363281 167.78125 240.578125 166.542969 240.738281 165.296875 C 240.898438 164.050781 241 162.796875 241.042969 161.542969 C 241.085938 160.285156 241.070312 159.03125 240.996094 157.773438 C 240.921875 156.519531 240.789062 155.269531 240.59375 154.027344 C 240.402344 152.785156 240.152344 151.554688 239.84375 150.335938 C 239.539062 149.117188 239.171875 147.917969 238.753906 146.730469 C 238.332031 145.546875 237.855469 144.386719 237.328125 143.246094 C 236.796875 142.105469 236.214844 140.992188 235.582031 139.90625 C 234.945312 138.820312 234.261719 137.769531 233.53125 136.746094 C 232.796875 135.726562 232.019531 134.742188 231.191406 133.792969 C 230.367188 132.84375 229.5 131.9375 228.589844 131.070312 C 227.679688 130.203125 226.730469 129.382812 225.742188 128.605469 C 224.753906 127.824219 223.730469 127.097656 222.675781 126.414062 C 221.617188 125.734375 220.53125 125.101562 219.417969 124.523438 C 218.300781 123.941406 217.160156 123.417969 215.996094 122.945312 C 214.832031 122.472656 213.648438 122.054688 212.441406 121.691406 C 211.238281 121.332031 210.019531 121.027344 208.789062 120.78125 C 207.554688 120.53125 206.3125 120.34375 205.0625 120.214844 C 203.8125 120.082031 202.558594 120.011719 201.304688 119.996094 C 200.046875 119.984375 198.792969 120.03125 197.539062 120.136719 C 196.285156 120.242188 195.039062 120.402344 193.804688 120.625 C 192.566406 120.847656 191.339844 121.125 190.128906 121.464844 C 188.917969 121.800781 187.726562 122.191406 186.550781 122.640625 C 185.378906 123.089844 184.226562 123.59375 183.097656 124.148438 C 181.972656 124.707031 180.875 125.3125 179.804688 125.972656 C 178.734375 126.632812 177.695312 127.339844 176.691406 128.097656 C 175.691406 128.855469 174.722656 129.65625 173.796875 130.503906 C 172.867188 131.351562 171.980469 132.242188 171.136719 133.171875 C 170.289062 134.105469 169.492188 135.074219 168.738281 136.078125 C 167.984375 137.085938 167.277344 138.125 166.621094 139.195312 C 165.964844 140.269531 165.359375 141.367188 164.808594 142.496094 C 164.253906 143.625 163.757812 144.777344 163.3125 145.953125 C 162.867188 147.128906 162.476562 148.324219 162.144531 149.535156 C 161.8125 150.75 161.535156 151.972656 161.320312 153.210938 C 161.101562 154.449219 160.941406 155.695312 160.839844 156.949219 C 160.738281 158.203125 160.699219 159.457031 160.714844 160.714844 L 160.714844 287.945312 C 160.714844 288.605469 160.683594 289.261719 160.617188 289.914062 C 160.554688 290.570312 160.457031 291.21875 160.328125 291.867188 C 160.199219 292.511719 160.039062 293.148438 159.847656 293.777344 C 159.660156 294.40625 159.4375 295.027344 159.183594 295.632812 C 158.933594 296.242188 158.652344 296.835938 158.34375 297.417969 C 158.03125 297.996094 157.695312 298.558594 157.328125 299.109375 C 156.964844 299.65625 156.570312 300.183594 156.152344 300.691406 C 155.738281 301.199219 155.296875 301.6875 154.832031 302.152344 C 154.363281 302.617188 153.878906 303.058594 153.371094 303.476562 C 152.859375 303.894531 152.332031 304.285156 151.785156 304.648438 C 151.238281 305.015625 150.675781 305.351562 150.09375 305.664062 C 149.515625 305.972656 148.921875 306.253906 148.3125 306.507812 C 147.703125 306.757812 147.085938 306.980469 146.457031 307.171875 C 145.828125 307.363281 145.191406 307.519531 144.542969 307.648438 C 143.898438 307.777344 143.25 307.875 142.59375 307.9375 C 141.9375 308.003906 141.28125 308.035156 140.625 308.035156 L 127.230469 308.035156 C 126.574219 308.035156 125.917969 308.003906 125.261719 307.9375 C 124.609375 307.875 123.957031 307.777344 123.3125 307.648438 C 122.667969 307.519531 122.03125 307.363281 121.402344 307.171875 C 120.769531 306.980469 120.152344 306.757812 119.542969 306.507812 C 118.9375 306.253906 118.34375 305.972656 117.761719 305.664062 C 117.183594 305.351562 116.617188 305.015625 116.070312 304.648438 C 115.523438 304.285156 114.996094 303.894531 114.488281 303.476562 C 113.980469 303.058594 113.492188 302.617188 113.027344 302.152344 C 112.5625 301.6875 112.121094 301.199219 111.703125 300.691406 C 111.285156 300.183594 110.894531 299.65625 110.527344 299.109375 C 110.164062 298.558594 109.824219 297.996094 109.515625 297.417969 C 109.203125 296.835938 108.925781 296.242188 108.671875 295.632812 C 108.421875 295.027344 108.199219 294.40625 108.007812 293.777344 C 107.816406 293.148438 107.65625 292.511719 107.527344 291.867188 C 107.402344 291.21875 107.304688 290.570312 107.238281 289.914062 C 107.175781 289.261719 107.144531 288.605469 107.144531 287.945312 L 107.144531 163.125 C 107.125 161.621094 107.144531 160.113281 107.199219 158.609375 C 107.253906 157.105469 107.34375 155.601562 107.46875 154.101562 C 107.59375 152.601562 107.753906 151.105469 107.953125 149.609375 C 108.148438 148.117188 108.378906 146.628906 108.648438 145.148438 C 108.914062 143.667969 109.21875 142.191406 109.554688 140.722656 C 109.890625 139.257812 110.261719 137.796875 110.667969 136.347656 C 111.074219 134.898438 111.515625 133.457031 111.988281 132.03125 C 112.464844 130.601562 112.972656 129.183594 113.511719 127.777344 C 114.054688 126.375 114.628906 124.980469 115.238281 123.605469 C 115.84375 122.226562 116.484375 120.863281 117.15625 119.515625 C 117.828125 118.167969 118.53125 116.839844 119.269531 115.523438 C 120.003906 114.210938 120.769531 112.914062 121.566406 111.636719 C 122.363281 110.359375 123.1875 109.101562 124.046875 107.863281 C 124.902344 106.621094 125.785156 105.40625 126.699219 104.207031 C 127.613281 103.011719 128.558594 101.835938 129.527344 100.6875 C 130.496094 99.535156 131.492188 98.40625 132.515625 97.300781 C 133.539062 96.195312 134.585938 95.117188 135.664062 94.0625 C 136.738281 93.003906 137.835938 91.976562 138.957031 90.972656 C 140.082031 89.972656 141.226562 88.996094 142.398438 88.046875 C 143.566406 87.097656 144.757812 86.175781 145.972656 85.285156 C 147.183594 84.394531 148.417969 83.53125 149.671875 82.695312 C 150.925781 81.863281 152.199219 81.058594 153.492188 80.285156 C 154.78125 79.511719 156.09375 78.769531 157.417969 78.058594 C 158.746094 77.347656 160.089844 76.667969 161.449219 76.023438 C 162.808594 75.375 164.183594 74.757812 165.570312 74.175781 C 166.960938 73.59375 168.363281 73.046875 169.777344 72.527344 C 171.191406 72.011719 172.617188 71.53125 174.054688 71.082031 C 175.492188 70.632812 176.941406 70.21875 178.398438 69.839844 C 179.855469 69.460938 181.320312 69.117188 182.792969 68.804688 C 184.265625 68.496094 185.746094 68.21875 187.234375 67.980469 C 188.71875 67.738281 190.210938 67.535156 191.707031 67.367188 C 193.203125 67.195312 194.703125 67.0625 196.207031 66.964844 C 197.65625 66.945312 199.109375 66.960938 200.558594 67.011719 C 202.011719 67.058594 203.460938 67.140625 204.90625 67.257812 C 206.355469 67.375 207.800781 67.523438 209.238281 67.707031 C 210.679688 67.890625 212.117188 68.105469 213.546875 68.355469 C 214.976562 68.605469 216.402344 68.890625 217.816406 69.207031 C 219.234375 69.523438 220.644531 69.871094 222.046875 70.253906 C 223.445312 70.632812 224.835938 71.046875 226.21875 71.496094 C 227.601562 71.941406 228.972656 72.417969 230.332031 72.929688 C 231.691406 73.4375 233.039062 73.980469 234.371094 74.554688 C 235.707031 75.125 237.027344 75.730469 238.332031 76.363281 C 239.640625 76.996094 240.929688 77.660156 242.207031 78.355469 C 243.480469 79.050781 244.742188 79.773438 245.984375 80.523438 C 247.222656 81.277344 248.449219 82.058594 249.652344 82.867188 C 250.859375 83.675781 252.046875 84.511719 253.210938 85.378906 C 254.378906 86.242188 255.523438 87.132812 256.652344 88.050781 C 257.777344 88.96875 258.878906 89.910156 259.960938 90.878906 C 261.042969 91.847656 262.101562 92.84375 263.136719 93.859375 C 264.171875 94.878906 265.183594 95.921875 266.167969 96.984375 C 267.15625 98.050781 268.117188 99.136719 269.054688 100.25 C 269.992188 101.359375 270.902344 102.488281 271.785156 103.640625 C 272.667969 104.792969 273.527344 105.964844 274.355469 107.15625 C 275.183594 108.347656 275.984375 109.558594 276.757812 110.789062 C 277.53125 112.019531 278.277344 113.265625 278.992188 114.527344 C 279.707031 115.792969 280.390625 117.070312 281.046875 118.367188 C 281.703125 119.664062 282.328125 120.972656 282.925781 122.296875 C 283.519531 123.621094 284.082031 124.960938 284.617188 126.308594 C 285.148438 127.660156 285.648438 129.023438 286.121094 130.398438 C 286.589844 131.773438 287.027344 133.15625 287.429688 134.550781 C 287.835938 135.945312 288.207031 137.347656 288.546875 138.757812 C 288.886719 140.171875 289.195312 141.589844 289.46875 143.015625 C 289.742188 144.441406 289.984375 145.875 290.191406 147.3125 C 290.398438 148.746094 290.574219 150.1875 290.714844 151.632812 C 290.855469 153.078125 290.960938 154.527344 291.035156 155.976562 C 291.109375 157.429688 291.148438 158.878906 291.152344 160.332031 C 291.160156 161.78125 291.132812 163.234375 291.070312 164.683594 C 291.007812 166.136719 290.914062 167.585938 290.785156 169.03125 C 290.65625 170.476562 290.492188 171.917969 290.296875 173.359375 C 290.101562 174.796875 289.871094 176.230469 289.609375 177.660156 C 289.347656 179.085938 289.050781 180.507812 288.722656 181.921875 C 288.394531 183.335938 288.03125 184.742188 287.636719 186.140625 C 287.242188 187.539062 286.816406 188.925781 286.359375 190.304688 C 285.902344 191.683594 285.410156 193.046875 284.890625 194.402344 C 284.367188 195.757812 283.8125 197.101562 283.230469 198.429688 C 282.644531 199.757812 282.03125 201.074219 281.386719 202.375 C 280.738281 203.675781 280.0625 204.960938 279.359375 206.230469 C 278.652344 207.5 277.917969 208.753906 277.15625 209.988281 C 276.394531 211.222656 275.601562 212.4375 274.78125 213.636719 C 273.960938 214.835938 273.113281 216.015625 272.238281 217.175781 C 271.367188 218.332031 270.464844 219.472656 269.535156 220.589844 C 268.609375 221.707031 267.65625 222.800781 266.679688 223.875 C 265.699219 224.945312 264.695312 225.996094 263.667969 227.023438 C 262.644531 228.050781 261.59375 229.050781 260.519531 230.027344 C 259.445312 231.007812 258.347656 231.957031 257.230469 232.886719 C 256.113281 233.8125 254.972656 234.710938 253.8125 235.585938 C 252.65625 236.460938 251.476562 237.304688 250.277344 238.125 C 249.078125 238.945312 247.859375 239.734375 246.625 240.496094 C 245.386719 241.257812 244.132812 241.992188 242.863281 242.695312 C 241.59375 243.402344 240.308594 244.074219 239.007812 244.71875 C 237.707031 245.363281 236.390625 245.976562 235.0625 246.5625 C 233.730469 247.144531 232.390625 247.695312 231.035156 248.21875 C 229.679688 248.738281 228.3125 249.226562 226.933594 249.683594 C 225.554688 250.140625 224.167969 250.566406 222.769531 250.960938 C 221.371094 251.351562 219.964844 251.714844 218.550781 252.039062 C 217.136719 252.367188 215.714844 252.664062 214.285156 252.925781 Z M 214.285156 252.925781 " fill-opacity="1" fill-rule="nonzero"/></svg>